<?xml version="1.0" encoding="utf-8"?>
<!-- Generator: Adobe Illustrator 16.0.0, SVG Export Plug-In . SVG Version: 6.00 Build 0)  -->
<!DOCTYPE svg PUBLIC "-//W3C//DTD SVG 1.1//EN" "http://www.w3.org/Graphics/SVG/1.1/DTD/svg11.dtd">
<svg version="1.1" xmlns="http://www.w3.org/2000/svg" xmlns:xlink="http://www.w3.org/1999/xlink" x="0px" y="0px" width="600px"
	 height="600px" viewBox="0 0 600 600" enable-background="new 0 0 600 600" xml:space="preserve">
<g id="Squere">
	<rect x="0" display="none" fill="#4C9BA6" stroke="#000000" stroke-miterlimit="10" width="600" height="600"/>
	
		<line display="none" fill="none" stroke="#E7F4F1" stroke-width="10" stroke-miterlimit="10" x1="469.667" y1="130.842" x2="115.667" y2="486.224"/>
</g>
<g id="S">
	<path fill="none" stroke="#E7F4F1" stroke-width="30" stroke-miterlimit="10" d="M439.291,101.029
		c-46.871-46.979-122.952-47.065-169.932-0.194c-46.979,46.872-47.065,122.954-0.193,169.933"/>
	<path fill="none" stroke="#E7F4F1" stroke-width="30" stroke-miterlimit="10" d="M160.198,498.905
		c46.871,46.979,122.952,47.064,169.931,0.192c46.98-46.872,47.068-122.952,0.195-169.932"/>
</g>
<g id="Gudes" display="none">
</g>
<g id="Layer_2">
	<path display="none" fill="none" stroke="#000000" stroke-width="30" stroke-miterlimit="10" d="M499.536,437.518
		c75.946-110.214,48.182-261.104-62.019-337.049c-110.199-75.948-261.101-48.176-337.053,62.023
		c-75.943,110.194-48.171,261.104,62.026,337.049C272.69,575.471,423.597,547.717,499.536,437.518z"/>
	<circle fill="#2EAB62" stroke="#E7F4F1" stroke-width="10" stroke-miterlimit="10" cx="299.907" cy="300.131" r="44.996"/>
	<circle fill="#EFD115" stroke="#E7F4F1" stroke-width="10" stroke-miterlimit="10" cx="470.033" cy="130.392" r="44.996"/>
	<circle fill="#0174B6" stroke="#E7F4F1" stroke-width="10" stroke-miterlimit="10" cx="129.782" cy="469.87" r="44.996"/>
</g>
</svg>
